<?xml version="1.0" encoding="UTF-8" standalone="no"?>
<svg
   width="16.000067"
   height="16.000061"
   viewBox="0 0 16.000067 16.000061"
   version="1.1"
   id="svg1"
   xmlns="http://www.w3.org/2000/svg"
   xmlns:svg="http://www.w3.org/2000/svg">
  <defs
     id="defs1">
    <clipPath
       clipPathUnits="userSpaceOnUse"
       id="clipPath1">
      <g
         id="g2">
        <rect
           width="45"
           height="31"
           id="rect2"
           x="0"
           y="0" />
      </g>
    </clipPath>
    <clipPath
       clipPathUnits="userSpaceOnUse"
       id="clipPath2">
      <g
         id="g3">
        <rect
           width="45"
           height="31"
           id="rect3"
           x="0"
           y="0" />
      </g>
    </clipPath>
  </defs>
  <path
     id="Path_30187"
     data-name="Path 30187"
     d="M 17.344,15.657 A 7.942,7.942 0 0 1 15,10.001 7.943,7.943 0 0 1 17.343,4.345 7.945,7.945 0 0 1 23,2.001 7.944,7.944 0 0 1 28.656,4.346 7.942,7.942 0 0 1 31,10.001 7.94,7.94 0 0 1 28.656,15.657 7.943,7.943 0 0 1 23,18.001 7.944,7.944 0 0 1 17.344,15.657 Z m 3.914,-2.008 a 9.334,9.334 0 0 0 0.477,1.455 c 0.493,1.152 1.028,1.569 1.266,1.569 0.238,0 0.772,-0.417 1.266,-1.569 a 9.38,9.38 0 0 0 0.475,-1.449 c -0.626,-0.032 -1.229,-0.049 -1.8,-0.049 -0.526,0 -1.093,0.015 -1.684,0.043 z m 3.889,2.672 a 6.724,6.724 0 0 0 3.2,-2.333 c -0.556,-0.072 -1.354,-0.166 -2.265,-0.241 a 9.864,9.864 0 0 1 -0.936,2.574 z m -7.508,-2.352 a 6.716,6.716 0 0 0 3.216,2.352 9.927,9.927 0 0 1 -0.94,-2.584 C 19.007,13.81 18.2,13.901 17.639,13.97 Z m 8.772,-5.634 c 0.049,0.543 0.075,1.1 0.075,1.665 a 18.118,18.118 0 0 1 -0.162,2.434 c 1.214,0.1 2.221,0.236 2.759,0.313 A 6.588,6.588 0 0 0 29.676,10 6.679,6.679 0 0 0 29.366,7.986 c -0.486,0.076 -1.584,0.231 -2.955,0.35 z m -10.085,1.666 a 6.608,6.608 0 0 0 0.582,2.725 c 0.649,-0.089 1.628,-0.208 2.77,-0.3 a 17.9,17.9 0 0 1 -0.161,-2.423 c 0,-0.559 0.024,-1.115 0.073,-1.654 -1.305,-0.108 -2.383,-0.25 -2.961,-0.334 a 6.648,6.648 0 0 0 -0.303,1.986 z m 8.669,2.34 a 16.406,16.406 0 0 0 0.165,-2.34 c 0,-0.523 -0.025,-1.051 -0.073,-1.569 -0.747,0.043 -1.465,0.066 -2.141,0.066 -0.64,0 -1.323,-0.021 -2.032,-0.06 -0.048,0.516 -0.072,1.041 -0.072,1.563 a 16.568,16.568 0 0 0 0.164,2.333 c 0.677,-0.035 1.329,-0.054 1.941,-0.054 0.647,0 1.336,0.021 2.053,0.061 z m -3.26,-7.443 a 10.38,10.38 0 0 0 -0.64,2.222 c 0.65,0.035 1.272,0.052 1.852,0.052 0.615,0 1.274,-0.02 1.959,-0.058 A 10.4,10.4 0 0 0 24.267,4.898 c -0.494,-1.152 -1.028,-1.57 -1.266,-1.57 -0.238,0 -0.772,0.417 -1.266,1.573 z m -4.56,1.851 c 0.622,0.084 1.534,0.193 2.588,0.28 a 10.67,10.67 0 0 1 1.091,-3.347 6.732,6.732 0 0 0 -3.679,3.066 z m 9.063,0.27 c 1.061,-0.092 1.965,-0.205 2.577,-0.291 a 6.733,6.733 0 0 0 -3.668,-3.045 10.684,10.684 0 0 1 1.091,3.335 z"
     fill="#407ff2"
     style="fill:#407ff2"
     clip-path="url(#clipPath1)"
     transform="translate(-14.999967,-2.0009693)" />
</svg>
