<svg xmlns="http://www.w3.org/2000/svg" xmlns:xlink="http://www.w3.org/1999/xlink" width="45" height="31" viewBox="0 0 45 31">
  <defs>
    <clipPath id="clip-Artboard_2">
      <rect width="45" height="31"/>
    </clipPath>
  </defs>
  <g id="Artboard_2" data-name="Artboard – 2" clip-path="url(#clip-Artboard_2)">
    <path id="Path_30190" data-name="Path 30190" d="M10.634,3.642a3.053,3.053,0,0,1-.253,1.283,1.912,1.912,0,0,1-.723.848,2.121,2.121,0,0,1-2.16,0,1.942,1.942,0,0,1-.731-.843A2.958,2.958,0,0,1,6.5,3.669v-.28A3.027,3.027,0,0,1,6.763,2.1a1.94,1.94,0,0,1,.728-.853,2.125,2.125,0,0,1,2.157,0,1.915,1.915,0,0,1,.726.841,3.021,3.021,0,0,1,.26,1.277Zm-.865-.26a2.175,2.175,0,0,0-.313-1.268,1.1,1.1,0,0,0-1.764,0A2.133,2.133,0,0,0,7.37,3.354v.287a2.159,2.159,0,0,0,.32,1.268,1.029,1.029,0,0,0,.887.448A1.017,1.017,0,0,0,9.46,4.92a2.205,2.205,0,0,0,.309-1.278Zm4.884.807a2.2,2.2,0,0,1-.39,1.369,1.354,1.354,0,0,1-2.02.111V7.422h-.831V2.3h.766l.034.376a1.22,1.22,0,0,1,.995-.444,1.261,1.261,0,0,1,1.061.5,2.261,2.261,0,0,1,.385,1.4Zm-.827-.072a1.542,1.542,0,0,0-.22-.878.717.717,0,0,0-.631-.325.764.764,0,0,0-.731.42V4.975a.771.771,0,0,0,.738.431.716.716,0,0,0,.62-.32A1.7,1.7,0,0,0,13.826,4.117Zm3.158,1.952a1.718,1.718,0,0,1-1.28-.5,1.8,1.8,0,0,1-.49-1.324v-.1a2.219,2.219,0,0,1,.214-.99,1.626,1.626,0,0,1,.6-.678,1.586,1.586,0,0,1,.861-.243,1.452,1.452,0,0,1,1.167.482,2.038,2.038,0,0,1,.412,1.364v.335H16.051a1.111,1.111,0,0,0,.306.725.918.918,0,0,0,.675.267,1.125,1.125,0,0,0,.93-.461l.448.427a1.5,1.5,0,0,1-.593.514A1.857,1.857,0,0,1,16.984,6.068Zm-.1-3.168a.7.7,0,0,0-.552.239,1.24,1.24,0,0,0-.268.667h1.583V3.744a1.01,1.01,0,0,0-.222-.631A.694.694,0,0,0,16.885,2.9Zm3-.6.024.427a1.33,1.33,0,0,1,1.077-.5q1.155,0,1.176,1.323V6h-.831V3.6a.762.762,0,0,0-.152-.521.64.64,0,0,0-.5-.169.8.8,0,0,0-.749.455V6H19.1V2.3Zm4.71,1.815a2.181,2.181,0,0,1,.215-.979,1.573,1.573,0,0,1,.6-.67,1.7,1.7,0,0,1,.9-.234,1.615,1.615,0,0,1,1.215.482,1.9,1.9,0,0,1,.5,1.278l0,.195a2.2,2.2,0,0,1-.21.978,1.554,1.554,0,0,1-.6.667,1.717,1.717,0,0,1-.9.236,1.6,1.6,0,0,1-1.253-.521,2,2,0,0,1-.47-1.389Zm.831.072a1.49,1.49,0,0,0,.236.894.767.767,0,0,0,.656.323.758.758,0,0,0,.655-.328,1.646,1.646,0,0,0,.234-.96,1.471,1.471,0,0,0-.241-.889.812.812,0,0,0-1.3-.005A1.615,1.615,0,0,0,25.423,4.188ZM29.5,2.3l.024.427a1.33,1.33,0,0,1,1.077-.5q1.155,0,1.176,1.323V6H30.95V3.6a.762.762,0,0,0-.152-.521.64.64,0,0,0-.5-.169.8.8,0,0,0-.749.455V6h-.831V2.3Zm8.114,2.553L38.207,2.3h.81L38.008,6h-.684l-.793-2.54L35.752,6h-.684L34.057,2.3h.81l.6,2.526L36.224,2.3h.625ZM41.2,6.068a1.718,1.718,0,0,1-1.28-.5,1.8,1.8,0,0,1-.49-1.324v-.1a2.219,2.219,0,0,1,.214-.99,1.626,1.626,0,0,1,.6-.678,1.586,1.586,0,0,1,.861-.243,1.452,1.452,0,0,1,1.167.482,2.038,2.038,0,0,1,.412,1.364v.335H40.268a1.111,1.111,0,0,0,.306.725.918.918,0,0,0,.675.267,1.125,1.125,0,0,0,.93-.461l.448.427a1.5,1.5,0,0,1-.593.514A1.857,1.857,0,0,1,41.2,6.068ZM41.1,2.9a.7.7,0,0,0-.552.239,1.24,1.24,0,0,0-.268.667h1.583V3.744a1.01,1.01,0,0,0-.222-.631A.694.694,0,0,0,41.1,2.9Zm5.472,1.289a2.222,2.222,0,0,1-.385,1.371,1.253,1.253,0,0,1-1.058.509A1.206,1.206,0,0,1,44.12,5.6l-.041.4h-.752V.75h.831V2.657a1.2,1.2,0,0,1,.967-.424,1.267,1.267,0,0,1,1.063.5,2.258,2.258,0,0,1,.386,1.4Zm-.831-.072a1.57,1.57,0,0,0-.212-.9.706.706,0,0,0-.615-.3.771.771,0,0,0-.759.472V4.91a.779.779,0,0,0,.766.482.7.7,0,0,0,.6-.291,1.521,1.521,0,0,0,.219-.878Z" transform="translate(-4 22)" fill="#fff"/>
    <path id="Path_30187" data-name="Path 30187" d="M4971.344-7258.344A7.942,7.942,0,0,1,4969-7264a7.943,7.943,0,0,1,2.343-5.656A7.945,7.945,0,0,1,4977-7272a7.944,7.944,0,0,1,5.656,2.345A7.942,7.942,0,0,1,4985-7264a7.94,7.94,0,0,1-2.344,5.656A7.943,7.943,0,0,1,4977-7256,7.944,7.944,0,0,1,4971.344-7258.344Zm3.914-2.008a9.334,9.334,0,0,0,.477,1.455c.493,1.152,1.028,1.569,1.266,1.569s.772-.417,1.266-1.569a9.38,9.38,0,0,0,.475-1.449c-.626-.032-1.229-.049-1.8-.049C4976.416-7260.395,4975.849-7260.38,4975.258-7260.352Zm3.889,2.672a6.724,6.724,0,0,0,3.2-2.333c-.556-.072-1.354-.166-2.265-.241A9.864,9.864,0,0,1,4979.146-7257.68Zm-7.508-2.352a6.716,6.716,0,0,0,3.216,2.352,9.927,9.927,0,0,1-.94-2.584C4973.007-7260.191,4972.2-7260.1,4971.639-7260.031Zm8.772-5.634c.049.543.075,1.1.075,1.665a18.118,18.118,0,0,1-.162,2.434c1.214.1,2.221.236,2.759.313a6.588,6.588,0,0,0,.593-2.747,6.679,6.679,0,0,0-.31-2.014C4982.88-7265.939,4981.782-7265.784,4980.411-7265.665ZM4970.326-7264a6.608,6.608,0,0,0,.582,2.725c.649-.089,1.628-.208,2.77-.3a17.9,17.9,0,0,1-.161-2.423c0-.559.024-1.115.073-1.654-1.305-.108-2.383-.25-2.961-.334A6.648,6.648,0,0,0,4970.326-7264Zm8.669,2.34a16.406,16.406,0,0,0,.165-2.34c0-.523-.025-1.051-.073-1.569-.747.043-1.465.066-2.141.066-.64,0-1.323-.021-2.032-.06-.048.516-.072,1.041-.072,1.563a16.568,16.568,0,0,0,.164,2.333c.677-.035,1.329-.054,1.941-.054C4977.594-7261.721,4978.283-7261.7,4979-7261.66Zm-3.26-7.443a10.38,10.38,0,0,0-.64,2.222c.65.035,1.272.052,1.852.052.615,0,1.274-.02,1.959-.058a10.4,10.4,0,0,0-.639-2.216c-.494-1.152-1.028-1.57-1.266-1.57S4976.229-7270.256,4975.735-7269.1Zm-4.56,1.851c.622.084,1.534.193,2.588.28a10.67,10.67,0,0,1,1.091-3.347A6.732,6.732,0,0,0,4971.175-7267.253Zm9.063.27c1.061-.092,1.965-.205,2.577-.291a6.733,6.733,0,0,0-3.668-3.045A10.684,10.684,0,0,1,4980.238-7266.983Z" transform="translate(-4954 7274.001)" fill="#fff"/>
  </g>
</svg>
